
<svg width="125" height="125" viewBox="0 0 125 125" fill="none" xmlns="http://www.w3.org/2000/svg">
<g filter="url(#filter0_d_199_954)">
<g clip-path="url(#clip0_199_954)">
<rect x="10" y="6" width="105" height="105" rx="30" fill="white"/>
<rect x="10" y="6" width="105" height="105" rx="30" fill="url(#paint0_linear_199_954)" fill-opacity="0.5"/>
<path d="M66.6948 38.6L64.8948 55.88L82.1748 51.02L83.4348 59.3L66.8748 60.65L77.5848 74.87L69.8448 79.1L62.1948 63.35L55.2648 79.1L47.2548 74.87L57.7848 60.65L41.4048 59.3L42.6648 51.02L59.7648 55.88L57.8748 38.6H66.6948Z" fill="url(#paint1_linear_199_954)"/>
</g>
</g>
<defs>
<filter id="filter0_d_199_954" x="0" y="0" width="125" height="125" filterUnits="userSpaceOnUse" color-interpolation-filters="sRGB">
<feFlood flood-opacity="0" result="BackgroundImageFix"/>
<feColorMatrix in="SourceAlpha" type="matrix" values="0 0 0 0 0 0 0 0 0 0 0 0 0 0 0 0 0 0 127 0" result="hardAlpha"/>
<feOffset dy="4"/>
<feGaussianBlur stdDeviation="5"/>
<feComposite in2="hardAlpha" operator="out"/>
<feColorMatrix type="matrix" values="0 0 0 0 0 0 0 0 0 0 0 0 0 0 0 0 0 0 0.25 0"/>
<feBlend mode="normal" in2="BackgroundImageFix" result="effect1_dropShadow_199_954"/>
<feBlend mode="normal" in="SourceGraphic" in2="effect1_dropShadow_199_954" result="shape"/>
</filter>
<linearGradient id="paint0_linear_199_954" x1="50.5" y1="20" x2="127.593" y2="191.941" gradientUnits="userSpaceOnUse">
<stop stop-color="#BFC2D7"/>
<stop offset="0.345" stop-color="#121425"/>
<stop offset="1" stop-color="#D2D4E8"/>
</linearGradient>
<linearGradient id="paint1_linear_199_954" x1="60.8761" y1="43.4468" x2="64.8377" y2="128.974" gradientUnits="userSpaceOnUse">
<stop stop-color="#0D102B"/>
<stop offset="0.0001" stop-color="#121425"/>
<stop offset="1" stop-color="#2A2C47"/>
</linearGradient>
<clipPath id="clip0_199_954">
<rect x="10" y="6" width="105" height="105" rx="30" fill="white"/>
</clipPath>
</defs>
</svg>
